<svg width="44" height="45" viewBox="0 0 44 45" fill="none" xmlns="http://www.w3.org/2000/svg">
<path d="M44 22.457C44 10.2965 34.1503 0.438477 22 0.438477C9.84973 0.438477 0 10.2965 0 22.457C0 33.4468 8.04504 42.5561 18.5625 44.2079V28.8217H12.9766V22.457H18.5625V17.606C18.5625 12.0876 21.847 9.03945 26.8722 9.03945C29.2785 9.03945 31.7969 9.46949 31.7969 9.46949V14.8881H29.0228C26.29 14.8881 25.4375 16.5855 25.4375 18.3285V22.457H31.5391L30.5637 28.8217H25.4375V44.2079C35.955 42.5561 44 33.4468 44 22.457Z" fill="#CFDCE3"/>
<path d="M30.5637 28.8216L31.5391 22.4569H25.4375V18.3285C25.4375 16.5872 26.29 14.8881 29.0228 14.8881H31.7969V9.46948C31.7969 9.46948 29.2793 9.03943 26.8722 9.03943C21.847 9.03943 18.5625 12.0876 18.5625 17.606V22.4569H12.9766V28.8216H18.5625V44.2079C20.8403 44.5646 23.1597 44.5646 25.4375 44.2079V28.8216H30.5637Z" fill="white"/>
</svg>
